# xmcd
#
# Track frame offsets:
#	150
#	20724
#	36150
#	52527
#	70617
#	86442
#	106625
#	122232
#	140562
#	155978
#
# Disc length: 2353 seconds
#
# Revision: 0
# Processed by: cddbd v1.5.2PL0 Copyright (c) Steve Scherf et al.
# Submitted via: EZCDAudioConverter 1.0.7.1
#
DISCID=7d092f0a
DTITLE=Kenny Lattimore - Back 2 Cool
DYEAR=2012
DGENRE=Soul
TTITLE0=Beautiful Nowheres
TTITLE1=What I Must Do
TTITLE2=Blood, Sweat and Tears 
TTITLE3=Back 2 Cool (ft Kelly Price)
TTITLE4=Find A Way
TTITLE5=Nothing Like You (Duet with Lalah Hathaway)
TTITLE6=You're My Girl
TTITLE7=Still Good (Ft Da TRUTH and Shanice)
TTITLE8=You Have My Heart
TTITLE9=Built To Last
EXTD=
EXTT0=
EXTT1=
EXTT2=
EXTT3=
EXTT4=
EXTT5=
EXTT6=
EXTT7=
EXTT8=
EXTT9=
PLAYORDER=
